<svg width="29" height="29" viewBox="0 0 29 29" fill="none" xmlns="http://www.w3.org/2000/svg">
<g filter="url(#filter0_d_5_463)">
<path d="M5 14.6875C5 15.2398 5.44772 15.6875 6 15.6875H17.0377C17.9286 15.6875 18.3747 16.7646 17.7448 17.3946L13.5234 21.616C13.1319 22.0075 13.133 22.6426 13.5259 23.0327L13.7929 23.2979C14.1838 23.6861 14.8151 23.6849 15.2046 23.2954L23.2929 15.2071C23.6834 14.8166 23.6834 14.1834 23.2929 13.7929L15.2071 5.70711C14.8166 5.31658 14.1834 5.31658 13.7929 5.70711L13.5321 5.9679C13.1418 6.35818 13.1415 6.99085 13.5315 7.38148L17.7485 11.606C18.3776 12.2362 17.9312 13.3125 17.0407 13.3125H6C5.44771 13.3125 5 13.7602 5 14.3125V14.6875Z" fill="#FF616F"/>
</g>
<defs>
<filter id="filter0_d_5_463" x="0" y="0.414215" width="28.5858" height="28.1741" filterUnits="userSpaceOnUse" color-interpolation-filters="sRGB">
<feFlood flood-opacity="0" result="BackgroundImageFix"/>
<feColorMatrix in="SourceAlpha" type="matrix" values="0 0 0 0 0 0 0 0 0 0 0 0 0 0 0 0 0 0 127 0" result="hardAlpha"/>
<feOffset/>
<feGaussianBlur stdDeviation="2.5"/>
<feComposite in2="hardAlpha" operator="out"/>
<feColorMatrix type="matrix" values="0 0 0 0 0 0 0 0 0 0 0 0 0 0 0 0 0 0 0.25 0"/>
<feBlend mode="normal" in2="BackgroundImageFix" result="effect1_dropShadow_5_463"/>
<feBlend mode="normal" in="SourceGraphic" in2="effect1_dropShadow_5_463" result="shape"/>
</filter>
</defs>
</svg>
