<svg width="17" height="21" viewBox="0 0 17 21" fill="none" xmlns="http://www.w3.org/2000/svg">
<path d="M5.77687 4.116C3.76087 4.228 2.65954 4.284 2.47287 4.284C2.02487 4.284 1.57687 4.01333 1.12887 3.472C0.68087 2.912 0.45687 2.33333 0.45687 1.736C0.45687 0.821332 3.11687 0.363999 8.43687 0.363999C11.1622 0.363999 13.1689 0.643999 14.4569 1.204C15.7449 1.764 16.3889 2.44533 16.3889 3.248C16.3889 3.49067 16.2489 3.724 15.9689 3.948C15.6889 4.15333 15.3342 4.256 14.9049 4.256C14.4755 4.256 13.6915 4.228 12.5529 4.172C11.4142 4.116 10.3782 4.07867 9.44487 4.06C9.51954 4.284 9.55687 4.54533 9.55687 4.844C9.55687 5.14267 9.44487 5.73067 9.22087 6.608C9.01554 7.48533 8.71687 8.708 8.32487 10.276C7.93287 11.8253 7.50354 13.7107 7.03687 15.932C6.5702 18.1347 6.24354 19.4507 6.05687 19.88C5.88887 20.2907 5.72087 20.496 5.55287 20.496C5.16087 20.496 4.6662 20.1413 4.06887 19.432C3.4902 18.704 3.20087 18.116 3.20087 17.668C3.20087 17.22 3.58354 15.372 4.34887 12.124C5.1142 8.85733 5.5902 6.188 5.77687 4.116Z" fill="#FF616F"/>
</svg>
