<svg width="45" height="14" viewBox="0 0 45 14" fill="none" xmlns="http://www.w3.org/2000/svg">
<path d="M3.043 1.335C3.25833 1.335 3.67767 1.56733 4.301 2.032C4.93567 2.48533 5.253 2.82533 5.253 3.052C5.253 3.44867 5.38333 4.10033 5.644 5.007C5.90467 5.91367 6.205 6.73533 6.545 7.472C6.885 7.07533 7.45733 6.34433 8.262 5.279C9.078 4.20233 9.76367 3.35233 10.319 2.729C10.8743 2.10567 11.288 1.794 11.56 1.794C11.832 1.794 12.1153 1.947 12.41 2.253C12.7047 2.559 12.852 2.865 12.852 3.171C12.852 3.477 12.8067 3.87367 12.716 4.361C12.6253 4.837 12.5233 5.28467 12.41 5.704C12.308 6.112 12.155 6.673 11.951 7.387C11.7583 8.101 11.6053 8.66767 11.492 9.087C11.39 9.495 11.2823 9.937 11.169 10.413C11.0557 10.8777 10.965 11.246 10.897 11.518C10.8403 11.7787 10.7723 12.0563 10.693 12.351C10.625 12.6343 10.5627 12.8553 10.506 13.014C10.4493 13.1613 10.387 13.2973 10.319 13.422C10.1943 13.66 10.0187 13.779 9.792 13.779C9.56533 13.779 9.33867 13.558 9.112 13.116C8.89667 12.6627 8.789 12.1923 8.789 11.705C8.789 10.5037 9.13467 8.91133 9.826 6.928C9.63333 7.17733 9.35567 7.54567 8.993 8.033C8.63033 8.509 8.35833 8.86033 8.177 9.087C8.007 9.30233 7.79167 9.55733 7.531 9.852C7.06633 10.362 6.613 10.617 6.171 10.617C5.58167 10.617 5.16233 10.3847 4.913 9.92C4.78833 9.682 4.61833 9.14933 4.403 8.322C4.199 7.48333 4.05167 6.90533 3.961 6.588C3.81367 7.75533 3.61533 8.815 3.366 9.767C3.11667 10.719 2.95233 11.3423 2.873 11.637C2.79367 11.9317 2.686 12.2887 2.55 12.708C2.32333 13.422 2.11933 13.779 1.938 13.779C1.734 13.779 1.45067 13.5127 1.088 12.98C0.736667 12.436 0.561 12.011 0.561 11.705C0.561 11.399 0.889667 9.869 1.547 7.115C2.21567 4.361 2.55 2.62133 2.55 1.896C2.55 1.522 2.71433 1.335 3.043 1.335ZM20.4996 8.968C20.7036 9.14933 20.8056 9.31367 20.8056 9.461C20.8056 9.60833 20.7376 9.91433 20.6016 10.379C20.4656 10.8437 20.3749 11.2063 20.3296 11.467C20.2843 11.7163 20.2446 11.9147 20.2106 12.062C20.1879 12.2093 20.1709 12.3283 20.1596 12.419C20.1483 12.4983 20.1256 12.6003 20.0916 12.725C20.0689 12.8497 20.0463 12.9517 20.0236 13.031C20.0123 13.099 19.9896 13.184 19.9556 13.286C19.9329 13.3767 19.9046 13.4503 19.8706 13.507C19.8366 13.5523 19.7969 13.6033 19.7516 13.66C19.6836 13.7507 19.5703 13.796 19.4116 13.796C19.2529 13.796 19.0546 13.6373 18.8166 13.32C18.5899 13.0027 18.4199 12.6173 18.3066 12.164C17.2413 13.252 16.3459 13.796 15.6206 13.796C15.1333 13.796 14.6063 13.5297 14.0396 12.997C13.4729 12.453 13.1896 11.9147 13.1896 11.382C13.1896 10.838 13.4333 10.0673 13.9206 9.07C14.4079 8.07267 15.0709 7.149 15.9096 6.299C16.7596 5.449 17.5983 5.024 18.4256 5.024C18.9016 5.024 19.4513 5.30167 20.0746 5.857C20.6979 6.41233 21.0096 6.92233 21.0096 7.387C21.0096 7.84033 20.8396 8.36733 20.4996 8.968ZM15.5526 11.654C16.0059 11.654 16.6066 11.348 17.3546 10.736C18.1139 10.1127 18.5843 9.33067 18.7656 8.39C18.7769 8.254 18.8733 8.17467 19.0546 8.152C19.0206 7.506 18.9129 7.183 18.7316 7.183C18.2783 7.183 17.7683 7.47767 17.2016 8.067C16.6463 8.65633 16.1873 9.28533 15.8246 9.954C15.4733 10.6227 15.2976 11.1157 15.2976 11.433C15.2976 11.5237 15.3089 11.586 15.3316 11.62C15.3656 11.6427 15.4393 11.654 15.5526 11.654ZM22.8756 7.897L22.7736 5.976C22.7736 5.34133 22.972 5.024 23.3686 5.024C23.5953 5.024 23.8163 5.109 24.0316 5.279C24.2583 5.449 24.4283 5.71533 24.5416 6.078C24.927 5.738 25.3463 5.466 25.7996 5.262C26.2643 5.04667 26.6723 4.939 27.0236 4.939C27.851 4.939 28.2646 5.13733 28.2646 5.534C28.2646 5.738 28.225 5.891 28.1456 5.993C28.0776 6.08367 28.021 6.15167 27.9756 6.197C27.9416 6.24233 27.8736 6.30467 27.7716 6.384C27.681 6.452 27.613 6.503 27.5676 6.537C27.307 6.707 27.12 6.826 27.0066 6.894C26.4966 7.21133 26.0603 7.59667 25.6976 8.05C25.335 8.492 25.063 9.10967 24.8816 9.903C24.5756 11.2063 24.2753 12.181 23.9806 12.827C23.6973 13.4617 23.3743 13.779 23.0116 13.779C22.6603 13.779 22.394 13.609 22.2126 13.269C22.0426 12.929 21.9576 12.6117 21.9576 12.317C21.9576 12.011 22.0653 11.5577 22.2806 10.957C22.5073 10.3563 22.6603 9.84067 22.7396 9.41C22.8303 8.968 22.8756 8.46367 22.8756 7.897ZM33.5228 5.041C33.9535 5.041 34.3785 5.296 34.7978 5.806C35.2171 6.316 35.4268 6.775 35.4268 7.183C35.4268 7.455 35.3078 7.591 35.0698 7.591C34.9338 7.591 34.7355 7.54 34.4748 7.438C34.2141 7.32467 33.9478 7.268 33.6758 7.268C33.4151 7.268 33.0241 7.35867 32.5028 7.54C31.9928 7.72133 31.7378 7.95933 31.7378 8.254C31.7378 8.36733 31.8908 8.53167 32.1968 8.747C32.5028 8.96233 32.8371 9.18333 33.1998 9.41C33.5625 9.63667 33.8968 9.954 34.2028 10.362C34.5088 10.7587 34.6618 11.195 34.6618 11.671C34.6618 12.1357 34.3161 12.606 33.6248 13.082C32.9448 13.558 32.1401 13.796 31.2108 13.796C30.2928 13.796 29.5051 13.5863 28.8478 13.167C28.1905 12.7477 27.8618 12.317 27.8618 11.875C27.8618 11.433 28.0431 11.212 28.4058 11.212C28.5531 11.212 28.7288 11.2687 28.9328 11.382C29.4995 11.7107 30.2021 11.875 31.0408 11.875C31.8908 11.875 32.3158 11.7617 32.3158 11.535C32.3158 11.3083 32.1515 11.059 31.8228 10.787C31.5055 10.5037 31.1541 10.243 30.7688 10.005C30.3948 9.767 30.0435 9.478 29.7148 9.138C29.3975 8.78667 29.2388 8.44667 29.2388 8.118C29.2388 7.506 29.7941 6.843 30.9048 6.129C32.0155 5.40367 32.8881 5.041 33.5228 5.041ZM38.1604 0.977999C38.1604 0.501999 38.3474 0.264 38.7214 0.264C39.0274 0.264 39.3787 0.519 39.7754 1.029C40.172 1.539 40.3704 1.97533 40.3704 2.338C40.3704 2.70067 40.2967 3.21067 40.1494 3.868C40.002 4.52533 39.849 5.126 39.6904 5.67C39.543 6.214 39.3164 6.99033 39.0104 7.999C38.7044 8.99633 38.4947 9.69333 38.3814 10.09C39.118 8.594 39.8944 7.37567 40.7104 6.435C41.5377 5.49433 42.229 5.024 42.7844 5.024C43.1357 5.024 43.538 5.33567 43.9914 5.959C44.4447 6.571 44.6714 7.12633 44.6714 7.625C44.6714 8.11233 44.5807 8.82633 44.3994 9.767C44.218 10.7077 43.9007 11.6143 43.4474 12.487C42.994 13.3597 42.5294 13.796 42.0534 13.796C41.6794 13.796 41.4924 13.5297 41.4924 12.997C41.4924 12.6117 41.6057 11.9827 41.8324 11.11C42.161 9.80667 42.3254 9.01333 42.3254 8.73C42.3254 8.44667 42.28 8.305 42.1894 8.305C41.532 8.305 40.5687 9.39867 39.2994 11.586C38.8687 12.334 38.506 12.8893 38.2114 13.252C37.928 13.6147 37.656 13.796 37.3954 13.796C37.1347 13.796 36.8174 13.5863 36.4434 13.167C36.0807 12.7477 35.8994 12.4247 35.8994 12.198C35.8994 11.96 35.9447 11.6143 36.0354 11.161C36.1374 10.7077 36.2847 10.0617 36.4774 9.223C36.6814 8.38433 37.01 6.86567 37.4634 4.667C37.928 2.457 38.1604 1.22733 38.1604 0.977999Z" fill="url(#paint0_linear_8_466)"/>
<defs>
<linearGradient id="paint0_linear_8_466" x1="-19" y1="-16" x2="9.99727" y2="49.8532" gradientUnits="userSpaceOnUse">
<stop stop-color="#BD66DB"/>
<stop offset="0.515625" stop-color="#E34F72"/>
<stop offset="1" stop-color="#3C0385" stop-opacity="0.99"/>
</linearGradient>
</defs>
</svg>
